<?xml version="1.0" encoding="utf-8"?>
<!-- Svg Vector Icons : http://www.onlinewebfonts.com/icon -->
<!DOCTYPE svg PUBLIC "-//W3C//DTD SVG 1.1//EN" "http://www.w3.org/Graphics/SVG/1.1/DTD/svg11.dtd">
<svg version="1.1" xmlns="http://www.w3.org/2000/svg" xmlns:xlink="http://www.w3.org/1999/xlink" x="0px" y="0px" viewBox="0 0 1000 1000" enable-background="new 0 0 1000 1000" xml:space="preserve">
<metadata> Svg Vector Icons : http://www.onlinewebfonts.com/icon </metadata>
<g><g transform="translate(0.000000,511.000000) scale(0.100000,-0.100000)"><path d="M4077.7,3953.5c-467-560.8-855.5-1031.6-865.1-1045c-7.7-13.4-1.9-44,15.3-70.8c30.6-47.9,32.5-47.9,365.6-47.9h334.9v-888.1c0-488.1,5.7-901.5,11.5-918.7c9.6-26.8,118.7-30.6,1025.9-30.6h1012.5l45.9,47.8l47.9,45.9v872.8v870.8h304.3c327.3,0,359.8,9.6,342.6,101.4c-3.8,24.9-390.4,501.5-857.5,1062.2c-658.4,790.5-857.5,1018.2-891.9,1018.2C4937.1,4971.7,4738,4744,4077.7,3953.5z"/><path d="M1344.6,2261.5c-602.9-76.6-1068-290.9-1203.9-558.9c-53.6-103.4-53.6-283.3-3.8-382.8c47.8-91.9,193.3-227.8,329.2-306.2c141.6-80.4,463.2-183.7,696.7-225.9c231.6-40.2,803.9-45.9,1033.5-9.6c547.4,86.1,981.9,302.4,1102.4,549.3c179.9,375.1-195.2,729.2-943.6,890c-135.9,30.6-268,40.2-560.8,45.9C1583.8,2267.3,1380.9,2265.4,1344.6,2261.5z"/><path d="M106.2,722.7C112,426,125.4,387.8,272.7,244.2C443.1,77.7,774.2-62,1162.7-130.9c260.3-45.9,826.8-45.9,1081.4,0c398.1,70.8,721.6,204.8,893.8,371.3c147.4,141.6,168.4,201,172.3,491.9c3.8,212.5,1.9,239.2-19.1,191.4c-114.8-289-474.7-493.8-1046.9-595.2c-245-44-801.9-45.9-1052.7-1.9C603.9,428,242.1,628.9,125.4,923.7C104.3,971.5,102.4,942.8,106.2,722.7z"/><path d="M4617.4,424.1c-622-78.5-1091-296.7-1223-568.4c-88-183.8-28.7-400,155-558.9c178-151.2,555-294.8,943.6-357.9c225.8-34.5,800-28.7,1033.6,11.5C6181.2-934.8,6608-643.9,6608-307c0,36.4-23,109.1-49.8,164.6c-120.6,241.2-468.9,430.6-983.8,530.2C5415.6,420.3,4774.4,443.3,4617.4,424.1z"/><path d="M100.5-167.3c0-281.4,34.4-371.3,193.3-514.9c281.3-252.6,788.5-394.3,1414.4-394.3c625.9,0,1133.1,141.6,1414.4,394.3C3281.5-538.6,3316-448.6,3316-167.3V62.4L3270-33.3c-162.7-350.3-786.6-583.8-1561.8-583.8c-775.2,0-1399.1,233.5-1561.8,583.8l-45.9,95.7V-167.3z"/><path d="M7880.8-494.6C7186-594.1,6786-779.8,6653.9-1066.8l-45.9-95.7v151.2v153.1l-49.8-99.5c-67-135.9-191.4-239.2-419.2-348.3c-321.5-157-694.8-229.7-1177.1-229.7c-490,0-853.6,70.8-1184.7,231.6c-222,109.1-379,245-424.9,367.5c-13.4,38.3-28.7,70.8-36.4,70.8c-5.7,0-24.9-38.3-44-86.1c-74.7-179.9-369.4-379-710.1-476.6c-493.8-143.5-1213.5-143.5-1707.3,0C513.9-1331,234.5-1143.4,146.4-952l-45.9,95.7V-1086c0-201,5.7-241.2,45.9-325.4c90-193.3,363.7-377.1,708.2-476.6c493.8-143.6,1213.5-143.6,1707.3,0c340.7,97.6,635.4,296.7,710.1,476.6c19.1,47.9,38.3,86.1,44,86.1c7.7,0,21.1-28.7,34.4-63.2c72.7-201,419.2-423,807.7-518.7c493.8-120.6,1159.9-116.7,1636.4,7.7c398.1,105.3,706.3,308.1,779,511c24.9,68.9,53.6,84.2,53.6,28.7c0-59.3,114.8-214.4,220.1-292.8c195.2-147.4,524.4-266.1,899.6-327.3c225.8-34.4,800-28.7,1033.5,11.5c654.6,114.8,1081.4,405.7,1081.4,742.6c0,36.3-23,109.1-49.8,164.6c-120.6,241.2-468.9,430.6-983.8,530.2C8671.2-498.4,8018.6-475.4,7880.8-494.6z"/><path d="M100.5-1976c0-256.5,17.2-333,101.4-444c375.1-491.9,1699.6-650.8,2559-308.1c271.8,109.1,499.6,302.4,530.2,447.9c13.4,70.8,36.4,70.8,49.8,0c17.2-80.4,191.4-260.3,336.9-346.4c155-91.9,465.1-195.2,719.7-241.2c268-49.8,863.2-47.8,1129.3,0c241.2,44,457.4,111,641.2,197.1c172.3,82.3,388.5,285.2,417.2,390.4l17.2,65.1l44-101.4c114.8-262.2,501.5-468.9,1071.8-572.3c250.7-44,821.1-44,1071.8,0c415.3,74.7,731.1,202.9,918.7,371.3C9865.5-2376,9900-2286,9900-2004.7v229.7l-45.9-95.7c-118.7-254.6-505.3-457.4-1064.2-558.9c-250.7-44-821.1-44-1071.8,0c-570.4,103.4-957,310.1-1071.8,572.3l-45.9,101.4l-19.1-65.1c-26.8-91.9-187.6-260.3-335-346.4c-155-91.9-465.1-195.2-719.6-241.2c-268-47.9-861.3-47.9-1129.3,0c-254.6,45.9-564.6,149.3-719.7,241.2c-145.5,86.1-319.6,266.1-336.9,346.4c-13.4,70.8-36.4,70.8-49.8,0c-30.6-145.5-258.4-338.8-530.2-447.9C1805.8-2649.7,334-2404.7,129.2-1830.5C102.4-1759.7,102.4-1765.4,100.5-1976z"/><path d="M100.5-2923.4c0-201,5.7-241.2,45.9-325.4c90-193.3,363.7-377.1,708.2-476.6c493.8-143.5,1213.5-143.5,1707.3,0c340.7,97.6,635.4,296.7,710.1,476.6c19.1,47.8,38.3,86.1,44,86.1c7.7,0,21.1-28.7,34.4-63.2c55.5-153.1,258.4-313.9,539.7-428.7c292.8-118.7,645-178,1071.8-178c486.1,0,853.6,72.7,1184.8,231.6c222,109.1,379,245,424.9,367.5c13.4,38.3,30.6,70.8,36.4,70.8c5.7,0,21-28.7,34.5-63.2c55.5-153.1,258.4-313.9,539.7-428.7c292.8-118.7,645-178,1071.8-178c802,0,1447,241.2,1609.6,601c28.7,63.2,36.4,126.3,36.4,308.1v229.7l-40.2-86.1c-116.8-260.3-551.2-478.5-1123.5-564.6c-380.9-57.4-926.4-30.6-1303.4,67c-392.4,99.5-717.7,310.1-790.5,511c-13.4,34.4-28.7,63.2-34.5,63.2c-5.7,0-23-32.5-36.4-70.8c-45.9-122.5-202.9-258.4-424.9-367.5c-331.1-158.8-698.6-231.6-1184.8-231.6c-426.8,0-779,59.3-1071.8,178c-281.4,114.8-484.2,275.6-539.7,428.7c-13.4,34.4-26.8,63.2-34.4,63.2c-5.7,0-24.9-38.3-44-86.1c-74.7-179.9-369.4-379-710.1-476.6c-493.8-143.5-1213.5-143.5-1707.3,0c-340.7,97.6-620.1,285.2-708.2,476.6l-45.9,95.7V-2923.4z"/><path d="M100.5-3842.1c0-201,5.7-241.2,45.9-325.4c88-191.4,367.5-379,708.2-476.6c493.8-143.5,1213.5-143.5,1707.3,0c340.7,97.6,635.4,296.7,710.1,476.6c19.1,47.9,38.3,86.1,44,86.1c7.7,0,21.1-28.7,34.4-63.2c55.5-153.1,258.4-313.9,539.7-428.7c292.8-118.7,645-178,1071.8-178c490,0,853.6,70.8,1184.8,231.6c222,109.1,379,245,424.9,367.5c13.4,38.3,30.6,70.8,36.4,70.8c5.7,0,21-28.7,34.5-63.2c55.5-153.1,258.4-313.9,539.7-428.7c292.8-118.7,645-178,1071.8-178c482.3,0,855.5,72.7,1177.1,229.7c227.8,109.1,352.2,212.4,419.2,348.3c45.9,90,49.8,120.6,49.8,329.2v229.7l-49.8-99.5c-67-135.9-191.4-239.2-419.2-348.3c-321.5-157-694.8-229.7-1177.1-229.7c-426.8,0-779,59.3-1071.8,178c-281.4,114.8-484.2,275.6-539.7,428.7c-13.4,34.5-28.7,63.2-34.5,63.2c-5.7,0-23-32.5-36.4-70.8c-45.9-122.5-202.9-258.4-424.9-367.5c-331.1-158.9-698.6-231.6-1184.8-231.6c-426.8,0-779,59.3-1071.8,178c-281.4,114.8-484.2,275.6-539.7,428.7c-13.4,34.5-26.8,63.2-34.4,63.2c-5.7,0-24.9-38.3-44-86.1c-74.7-179.9-369.4-379-710.1-476.6c-493.8-143.5-1213.5-143.5-1707.3,0c-340.7,97.6-620.1,285.2-708.2,476.6l-45.9,95.7V-3842.1z"/></g></g>
</svg>