<?xml version="1.0" encoding="utf-8"?>
<!-- Svg Vector Icons : http://www.onlinewebfonts.com/icon -->
<!DOCTYPE svg PUBLIC "-//W3C//DTD SVG 1.1//EN" "http://www.w3.org/Graphics/SVG/1.1/DTD/svg11.dtd">
<svg version="1.1" xmlns="http://www.w3.org/2000/svg" xmlns:xlink="http://www.w3.org/1999/xlink" x="0px" y="0px" viewBox="0 0 1000 1000" enable-background="new 0 0 1000 1000" xml:space="preserve">
<metadata> Svg Vector Icons : http://www.onlinewebfonts.com/icon </metadata>
<g><g transform="translate(0.000000,512.000000) scale(0.100000,-0.100000)"><path d="M3942.1,5001.5c-7.7-5.7-13.4-419.1-13.4-918.7v-905.3h-331.1c-342.6,0-377-7.7-377-82.3c0-34.5,1653.6-2067,1720.6-2114.8c19.1-13.4,45.9-19.1,61.2-13.4c34.4,15.3,1728.2,2084.2,1735.9,2120.6c3.8,15.3-7.6,42.1-24.9,59.3c-26.8,24.9-80.4,30.6-336.8,30.6h-304.3v889.9v888l-57.4,30.6c-47.9,24.9-197.1,28.7-1058.4,28.7C4405.3,5014.9,3947.8,5009.2,3942.1,5001.5z"/><path d="M1308.6,2236c-239.2-26.8-578-118.7-757.9-204.8c-178-86.1-356-237.3-413.4-348.3c-49.8-97.6-49.8-281.3,0-377c187.6-363.6,924.4-608.6,1724.4-572.3c321.5,15.3,545.5,53.6,803.8,139.7c499.5,166.5,746.4,440.2,660.3,731.1C3191.9,2052.2,2263.6,2341.2,1308.6,2236z"/><path d="M101,747c0-256.5,17.2-333,101.4-444c444-581.8,2160.8-666,2868.9-141.6c197.1,147.4,243.1,256.5,243.1,576.1c0,218.2-1.9,225.8-26.8,155C3249.3,783.3,3167,689.6,3017.7,590C2567.9,285.7,1710.5,182.4,990.9,348.9C545,450.3,212,662.8,127.8,896.3C104.8,961.3,102.9,951.8,101,747z"/><path d="M4656,410.1c-499.5-59.3-907.2-204.8-1125.4-400c-237.3-212.4-237.3-493.8,0-706.2c132.1-120.6,262.2-191.4,495.7-267.9c256.4-86.1,480.4-124.4,801.9-139.7c786.6-34.5,1542.6,212.4,1734,570.3c47.9,88,47.9,290.9,0,379c-122.5,229.7-480.4,423-960.8,518.6C5417.7,402.5,4826.3,431.2,4656,410.1z"/><path d="M102.9-169.8c-1.9-292.8,15.3-346.4,170.3-499.5c281.3-283.3,765.5-424.9,1435.4-424.9c398.1,0,677.5,42.1,966.5,145.5c237.3,86.1,371.3,166.5,495.7,300.4c124.4,134,145.4,204.8,143.5,478.5c-1.9,185.6-5.7,208.6-23,153.1c-28.7-88-197.1-266-325.4-342.6c-294.7-178-740.7-275.6-1257.4-275.6c-493.8,0-886.1,78.5-1196.2,239.2C370.8-321,154.5-110.4,125.8-18.6C108.6,38.8,104.8,17.8,102.9-169.8z"/><path d="M7909.6-508.5C7534.5-554.5,7257-631,7025.4-749.7c-189.5-97.6-306.2-201-367.5-325.4l-49.8-99.5v153.1v151.2l-36.4-78.5c-145.4-317.7-662.2-547.4-1356.9-599.1c-863.2-67-1722.5,212.5-1864.1,604.8c-13.4,34.4-26.8,63.2-34.4,63.2c-5.7,0-24.9-38.3-44-84.2c-40.2-95.7-189.5-246.9-323.5-325.4c-143.5-84.2-442.1-181.8-683.2-223.9c-310.1-55.5-805.8-55.5-1112,0c-423,74.6-690.9,191.4-882.3,382.8c-72.7,72.7-134,155-145.5,193.3c-17.2,57.4-21,36.4-22.9-151.2c-1.9-292.8,15.3-346.4,170.3-499.5c243.1-243.1,622-377,1186.6-421c556.9-42.1,1167.5,67,1502.4,267.9c134,82.3,308.1,264.1,325.4,344.5c17.2,76.6,34.4,72.7,65.1-11.5c80.4-223.9,426.8-428.7,901.4-535.9c941.7-210.5,2090,45.9,2308.1,514.8l42.1,93.8l38.3-84.2c149.3-336.8,702.4-568.4,1439.2-602.9c786.6-34.4,1542.6,212.5,1733.9,570.3c47.9,88,47.9,290.9,0,379c-122.5,229.7-480.4,423-960.7,518.7C8671.3-516.2,8078-487.5,7909.6-508.5z"/><path d="M101-2020.5c0-208.6,3.8-239.2,49.8-329.2c120.6-243.1,461.2-430.6,976.1-534c243-47.9,920.6-47.9,1163.6,0c237.3,47.8,457.4,120.6,614.3,201c156.9,82.3,336.9,252.6,375.1,354.1c13.4,38.3,30.6,70.8,36.4,70.8s23-30.6,36.4-68.9c57.4-156.9,310-340.7,627.7-455.5c287.1-101.4,530.1-135.9,981.8-135.9c440.2,0,595.2,21,911,114.8c336.9,101.4,637.3,306.2,698.6,476.6c26.8,74.6,55.5,91.9,55.5,32.5c0-42.1,114.8-201,187.6-260.3c183.7-151.2,516.7-283.3,874.6-346.4c267.9-47.8,861.3-47.8,1129.2,0c254.5,45.9,564.6,149.3,719.6,241.1c153.1,91.9,308.1,254.5,338.8,357.9c13.4,42.1,23,174.2,21.1,294.7c-1.9,183.8-5.8,208.6-23,153.1c-30.6-93.8-191.4-260.3-336.9-346.4c-155-91.9-465.1-195.2-719.6-241.1c-267.9-47.8-861.3-47.8-1129.2,0c-254.5,45.9-564.6,149.3-719.6,241.1c-147.4,86.1-313.9,260.3-333,344.5c-17.2,74.6-34.5,72.7-65.1-11.5c-61.2-168.4-388.5-388.5-719.6-484.2c-308.1-88-461.3-107.2-890-107.2c-440.2,0-595.2,21-911,114.8c-340.7,103.3-637.3,304.3-698.6,476.6c-13.4,38.3-30.6,68.9-36.4,68.9s-23-28.7-34.4-65.1c-34.4-93.8-172.3-239.2-300.5-315.8c-149.3-89.9-401.9-181.8-641.1-233.5c-271.8-59.3-945.4-65.1-1213.4-11.5c-514.8,105.3-855.5,290.9-976.1,534l-49.8,99.5V-2020.5z"/><path d="M102.9-2925.8c-1.9-292.8,15.3-346.4,170.3-499.5c241.2-243.1,614.4-375.1,1180.9-421.1c553.1-44,1173.2,67,1512,271.8c130.1,78.5,304.3,262.2,321.5,340.7c7.7,30.6,19.1,57.4,24.9,57.4c7.7,0,28.7-38.3,47.8-86.1c156.9-378.9,1018.2-650.7,1856.5-583.7c696.7,55.5,1245.9,300.5,1356.9,606.7c13.4,34.4,28.7,63.2,34.4,63.2s23-30.6,36.4-68.9c139.7-386.6,1018.2-667.9,1864.1-601c689,55.5,1188.5,271.8,1341.6,578c45.9,90,49.7,120.6,49.7,329.2v231.6l-36.4-78.5c-101.4-223.9-390.4-403.8-832.5-514.8c-522.5-132.1-1251.7-109.1-1743.5,57.4c-319.6,107.2-583.7,294.7-643.1,457.4c-13.4,38.3-30.6,68.9-36.4,68.9s-23-30.6-36.4-68.9c-61.2-170.3-361.7-375.1-698.6-476.6c-317.7-95.7-470.8-114.8-911-112.9c-445.9,0-627.7,23-926.3,116.8c-344.5,107.2-620.1,298.6-681.4,470.8c-32.5,86.1-49.8,90-67,13.4c-17.2-78.5-191.4-262.2-321.5-340.7c-294.7-178-740.7-275.6-1257.4-275.6c-493.8,0-886.1,78.5-1196.2,239.2c-141.6,74.6-357.9,285.2-386.6,377C108.6-2717.1,104.8-2738.2,102.9-2925.8z"/><path d="M102.9-3844.4c-1.9-292.8,15.3-346.4,170.3-499.5c279.4-279.4,761.7-423,1425.8-424.9c511,0,962.7,95.7,1251.7,266c143.5,86.1,317.7,267.9,336.8,350.2c17.2,76.6,34.4,72.7,65.1-11.5c109.1-300.5,662.2-545.5,1356.9-601c845.9-67,1722.5,214.4,1862.2,601c13.4,38.3,30.6,68.9,36.4,68.9s23-30.6,36.4-68.9c109.1-300.5,662.2-545.5,1356.9-601c717.7-57.4,1490.9,139.7,1762.7,449.8c114.8,130.1,135.9,202.9,135.9,459.3v229.7l-36.4-78.5c-145.4-317.7-662.2-547.4-1355-599.1c-865.1-67-1724.4,212.5-1866,604.8c-28.7,78.5-40.2,78.5-68.9,0c-111-306.2-666-553.1-1356.9-604.8c-861.3-67-1724.4,212.5-1866,602.9c-28.7,80.4-45.9,82.3-63.2,7.7c-17.2-78.5-191.4-262.2-321.5-340.7c-294.7-178-740.7-275.6-1257.4-275.6c-493.8,0-886.1,78.5-1196.2,239.2c-141.6,74.6-357.9,285.2-386.6,377C108.6-3635.8,104.8-3656.8,102.9-3844.4z"/></g></g>
</svg>